<svg xmlns="http://www.w3.org/2000/svg" width="152" height="152" fill="none" viewBox="0 0 152 152">
  <path fill="#54E280" fill-opacity=".8" d="M111.355 76L76 40.645 40.645 76 76 111.355 111.355 76zM76 87.785L64.215 76 76 64.215 87.785 76 76 87.785zm58.926 35.355l11.785-11.785-11.785-11.785 11.785-11.785c6.481-6.482 6.481-17.088 0-23.57L134.926 52.43l11.785-11.785-11.785-11.786-11.786 11.786-11.785-11.786 11.785-11.785L111.355 5.29 99.57 17.074 87.785 5.29c-6.482-6.482-17.088-6.482-23.57 0L52.43 17.074 40.645 5.29 28.86 17.074 40.645 28.86 28.86 40.645 17.074 28.859 5.29 40.645 17.074 52.43 5.29 64.215c-6.481 6.482-6.481 17.088 0 23.57L17.074 99.57 5.29 111.355l11.785 11.785 11.786-11.785 11.785 11.785-11.786 11.786 11.786 11.785 11.785-11.785 11.785 11.785c6.482 6.481 17.088 6.481 23.57 0l11.785-11.785 11.785 11.785 11.785-11.785-11.785-11.786 11.785-11.785 11.786 11.785zM76 134.926L17.074 76 76 17.074 134.926 76 76 134.926z"/>
</svg>
