<svg xmlns="http://www.w3.org/2000/svg" width="168" height="168" fill="none" viewBox="0 0 168 168">
  <path fill="#FFCC4A" d="M113.5 30.167L98.75 44.833 84 30.167 69.25 44.833 54.5 30.167 84 .667l29.5 29.5zm24.333 83.333l-14.666-14.75L137.833 84l-14.666-14.75 14.666-14.75 29.5 29.5-29.5 29.5zM54.5 137.833l14.75-14.666L84 137.833l14.75-14.666 14.75 14.666-29.5 29.5-29.5-29.5zM30.167 54.5l14.666 14.75L30.167 84l14.666 14.75-14.666 14.75L.667 84l29.5-29.5zM84 109c13.807 0 25-11.193 25-25S97.807 59 84 59 59 70.193 59 84s11.193 25 25 25z"/>
</svg>
