<svg xmlns="http://www.w3.org/2000/svg" width="160" height="160" fill="none" viewBox="0 0 160 160">
  <path fill="#11AFAF" d="M30 88.333c-4.583 0-8.333 3.75-8.333 8.334 0 4.583 3.75 8.333 8.333 8.333s8.333-3.75 8.333-8.333c0-4.584-3.75-8.334-8.333-8.334zm0 33.334c-4.583 0-8.333 3.75-8.333 8.333s3.75 8.333 8.333 8.333 8.333-3.75 8.333-8.333-3.75-8.333-8.333-8.333zM30 55c-4.583 0-8.333 3.75-8.333 8.333 0 4.584 3.75 8.334 8.333 8.334s8.333-3.75 8.333-8.334C38.333 58.75 34.583 55 30 55zM5 59.167a4.126 4.126 0 00-4.167 4.166A4.126 4.126 0 005 67.5a4.126 4.126 0 004.167-4.167A4.126 4.126 0 005 59.167zm25-37.5c-4.583 0-8.333 3.75-8.333 8.333s3.75 8.333 8.333 8.333 8.333-3.75 8.333-8.333-3.75-8.333-8.333-8.333zM155 67.5a4.127 4.127 0 004.167-4.167A4.127 4.127 0 00155 59.167a4.127 4.127 0 00-4.167 4.166A4.127 4.127 0 00155 67.5zM96.667 38.333c4.583 0 8.333-3.75 8.333-8.333s-3.75-8.333-8.333-8.333c-4.584 0-8.334 3.75-8.334 8.333s3.75 8.333 8.334 8.333zm0-29.166A4.126 4.126 0 00100.833 5 4.126 4.126 0 0096.667.833 4.126 4.126 0 0092.5 5a4.126 4.126 0 004.167 4.167zM5 92.5a4.126 4.126 0 00-4.167 4.167A4.126 4.126 0 005 100.833a4.126 4.126 0 004.167-4.166A4.126 4.126 0 005 92.5zm58.333 58.333A4.127 4.127 0 0059.167 155a4.127 4.127 0 004.166 4.167A4.127 4.127 0 0067.5 155a4.127 4.127 0 00-4.167-4.167zm0-141.666A4.126 4.126 0 0067.5 5 4.126 4.126 0 0063.333.833 4.126 4.126 0 0059.167 5a4.126 4.126 0 004.166 4.167zm0 29.166c4.584 0 8.334-3.75 8.334-8.333s-3.75-8.333-8.334-8.333C58.75 21.667 55 25.417 55 30s3.75 8.333 8.333 8.333zm0 45.834c-6.916 0-12.5 5.583-12.5 12.5 0 6.916 5.584 12.5 12.5 12.5 6.917 0 12.5-5.584 12.5-12.5 0-6.917-5.583-12.5-12.5-12.5zM130 88.333c-4.583 0-8.333 3.75-8.333 8.334 0 4.583 3.75 8.333 8.333 8.333s8.333-3.75 8.333-8.333c0-4.584-3.75-8.334-8.333-8.334zm0 33.334c-4.583 0-8.333 3.75-8.333 8.333s3.75 8.333 8.333 8.333 8.333-3.75 8.333-8.333-3.75-8.333-8.333-8.333zM130 55c-4.583 0-8.333 3.75-8.333 8.333 0 4.584 3.75 8.334 8.333 8.334s8.333-3.75 8.333-8.334c0-4.583-3.75-8.333-8.333-8.333zm0-33.333c-4.583 0-8.333 3.75-8.333 8.333s3.75 8.333 8.333 8.333 8.333-3.75 8.333-8.333-3.75-8.333-8.333-8.333zM155 92.5a4.127 4.127 0 00-4.167 4.167 4.126 4.126 0 004.167 4.166 4.126 4.126 0 004.167-4.166A4.127 4.127 0 00155 92.5zm-58.333 29.167c-4.584 0-8.334 3.75-8.334 8.333s3.75 8.333 8.334 8.333c4.583 0 8.333-3.75 8.333-8.333s-3.75-8.333-8.333-8.333zm0 29.166A4.127 4.127 0 0092.5 155a4.127 4.127 0 004.167 4.167 4.126 4.126 0 004.166-4.167 4.126 4.126 0 00-4.166-4.167zm-33.334-100c-6.916 0-12.5 5.584-12.5 12.5 0 6.917 5.584 12.5 12.5 12.5 6.917 0 12.5-5.583 12.5-12.5 0-6.916-5.583-12.5-12.5-12.5zm0 70.834c-4.583 0-8.333 3.75-8.333 8.333s3.75 8.333 8.333 8.333c4.584 0 8.334-3.75 8.334-8.333s-3.75-8.333-8.334-8.333zm33.334-37.5c-6.917 0-12.5 5.583-12.5 12.5 0 6.916 5.583 12.5 12.5 12.5 6.916 0 12.5-5.584 12.5-12.5 0-6.917-5.584-12.5-12.5-12.5zm0-33.334c-6.917 0-12.5 5.584-12.5 12.5 0 6.917 5.583 12.5 12.5 12.5 6.916 0 12.5-5.583 12.5-12.5 0-6.916-5.584-12.5-12.5-12.5z"/>
</svg>
