<svg xmlns="http://www.w3.org/2000/svg" viewBox="0 0 640 426.67"><defs><style>.cls-1{fill:#a1d0d0;}</style></defs><g id="id-front"><path class="cls-1" d="M224.28,213.29v3.85a8,8,0,0,1-8,8H90.06a8,8,0,0,1-8-8v-3.85c0-23.71,47.41-36.74,71.11-36.74S224.28,189.58,224.28,213.29ZM153.17,154a35.56,35.56,0,1,0-35.55-35.56A35.51,35.51,0,0,0,153.17,154ZM640,47.41V379.26c0,26.07-26.18,47.41-58.18,47.41H58.18c-32,0-58.18-21.34-58.18-47.41V47.41C0,21.33,26.18,0,58.18,0H581.82C613.82,0,640,21.33,640,47.41ZM259.84,71.06a23.78,23.78,0,0,0-23.7-23.7H70.21a23.69,23.69,0,0,0-23.7,23.7V237a23.69,23.69,0,0,0,23.7,23.7H236.14a23.77,23.77,0,0,0,23.7-23.7ZM593.07,144c0-5.25-3.12-9.51-7-9.51H307.65c-3.85,0-7,4.26-7,9.51v25.31c0,5.25,3.12,9.51,7,9.51H586.1c3.85,0,7-4.26,7-9.51Zm0-88.64c0-5.26-3.12-9.51-7-9.51H307.65c-3.85,0-7,4.25-7,9.51v25.3c0,5.25,3.12,9.51,7,9.51H586.1c3.85,0,7-4.26,7-9.51Z"/></g></svg>