<svg xmlns="http://www.w3.org/2000/svg" viewBox="0 0 640 426.67"><defs><style>.cls-1{fill:#a1d0d0;}</style></defs><g id="id-back"><path class="cls-1" d="M581.82,0H58.18C26.18,0,0,21.33,0,47.41V379.26c0,26.07,26.18,47.41,58.18,47.41H581.82c32,0,58.18-21.34,58.18-47.41V47.41C640,21.33,613.82,0,581.82,0Zm15.51,181.66c0,5.25-5.92,9.51-13.22,9.51H55.89c-7.3,0-13.22-4.26-13.22-9.51v-25.3c0-5.26,5.92-9.51,13.22-9.51H584.11c7.3,0,13.22,4.25,13.22,9.51Zm0-88.64c0,5.25-5.92,9.5-13.22,9.5H55.89c-7.3,0-13.22-4.25-13.22-9.5V67.71c0-5.25,5.92-9.51,13.22-9.51H584.11c7.3,0,13.22,4.26,13.22,9.51Z"/></g></svg>