<svg id="selfie-id" xmlns="http://www.w3.org/2000/svg" viewBox="0 0 640 426.67"><defs><style>.cls-1{fill:#a1d0d0;}</style></defs><path class="cls-1" d="M403.16,121.51V124a4.29,4.29,0,0,1-4.3,4.3H326.44a4.3,4.3,0,0,1-4.3-4.3v-2.45c0-13.5,27-20.93,40.51-20.93S403.16,108,403.16,121.51ZM360.59,87.65a20.26,20.26,0,1,0-18.09-18.1A20.25,20.25,0,0,0,360.59,87.65ZM640,27V216.07c0,14.85-14.92,27-33.15,27H308.53c-18.23,0-33.14-12.15-33.14-27V27c0-14.86,14.91-27,33.14-27H606.85C625.08,0,640,12.15,640,27ZM423.42,40.49A13.55,13.55,0,0,0,409.92,27H315.39a13.51,13.51,0,0,0-13.51,13.51V135a13.51,13.51,0,0,0,13.51,13.51h94.53A13.55,13.55,0,0,0,423.42,135ZM613.26,82c0-3-1.78-5.42-4-5.42H450.66c-2.2,0-4,2.43-4,5.42V96.45c0,3,1.77,5.41,4,5.41H609.29c2.19,0,4-2.42,4-5.41Zm0-50.51c0-3-1.78-5.41-4-5.41H450.66c-2.2,0-4,2.42-4,5.41V45.94c0,3,1.77,5.42,4,5.42H609.29c2.19,0,4-2.43,4-5.42Z"/><circle class="cls-1" cx="141.88" cy="213.84" r="70.94"/><path class="cls-1" d="M0,403c0-47.29,94.59-73.31,141.88-73.31s141.88,26,141.88,73.31v11.65a12,12,0,0,1-12,12H12a12,12,0,0,1-12-12Z"/></svg>