<?xml version="1.0" encoding="utf-8"?>
<!-- Generator: Adobe Illustrator 26.0.2, SVG Export Plug-In . SVG Version: 6.00 Build 0)  -->
<svg version="1.1" id="Layer_1" xmlns="http://www.w3.org/2000/svg" xmlns:xlink="http://www.w3.org/1999/xlink" x="0px" y="0px"
	 viewBox="0 0 21 20" style="enable-background:new 0 0 21 20;" xml:space="preserve">
<style type="text/css">
	.st0{fill:#A1D0D0;}
</style>
<path class="st0" d="M16,11v7H2V4h5c0.1-0.7,0.2-1.4,0.5-2H2C0.9,2,0,2.9,0,4v14c0,1.1,0.9,2,2,2h14c1.1,0,2-0.9,2-2v-5L16,11z
	 M17.3,6.9C17.7,6.2,18,5.4,18,4.5C18,2,16,0,13.5,0S9,2,9,4.5S11,9,13.5,9c0.9,0,1.7-0.3,2.4-0.7l3.1,3.1l1.4-1.4L17.3,6.9z
	 M13.5,7C12.1,7,11,5.9,11,4.5S12.1,2,13.5,2S16,3.1,16,4.5S14.9,7,13.5,7z M9.4,10.1c0,1.1-0.9,2-2,2s-2-0.9-2-2s0.9-2,2-2
	S9.4,9.1,9.4,10.1z M3.5,15.4c0-1.3,2.6-2,3.9-2s3.9,0.7,3.9,2v0.3c0,0.2-0.1,0.3-0.3,0.3H3.8c-0.2,0-0.3-0.1-0.3-0.3V15.4z"/>
</svg>
