<?xml version="1.0" encoding="utf-8"?>
<!-- Generator: Adobe Illustrator 25.4.1, SVG Export Plug-In . SVG Version: 6.00 Build 0)  -->
<svg version="1.1" id="Procyon" xmlns="http://www.w3.org/2000/svg" xmlns:xlink="http://www.w3.org/1999/xlink" x="0px" y="0px"
	 viewBox="0 0 3096 468" style="enable-background:new 0 0 3096 468;" xml:space="preserve">
<style type="text/css">
	.st0{fill:url(#SVGID_1_);}
	.st1{fill:url(#logo_00000163761175139642194040000006199596771539365261_);}
</style>
<g>
	
		<linearGradient id="SVGID_1_" gradientUnits="userSpaceOnUse" x1="0" y1="236" x2="3096" y2="236" gradientTransform="matrix(1 0 0 -1 0 470)">
		<stop  offset="2.237672e-07" style="stop-color:#E1EEEF"/>
		<stop  offset="1" style="stop-color:#E4F4F0"/>
	</linearGradient>
	<path class="st0" d="M243.6,0c90.2,0,161.8,58.7,161.8,158.6c0,100.5-71.5,161.8-161.8,161.8H134.1V468H0V0H243.6z M134.1,117.3
		V223h85.7c32.9,0,56.7-21.9,56.7-52.9s-23.8-52.9-56.7-52.9L134.1,117.3L134.1,117.3z M851.5,468h-83.1c-56.1,0-95.4-20-121.2-59.9
		l-62.5-97.3h-23.9V468H427.3V0H671c90.2,0,161.8,58.7,161.8,154.7c0,65.7-42.5,115.4-107.6,137.3l20.6,30.3
		c9.7,13.5,22.6,20,40.6,20h65.1L851.5,468L851.5,468z M560.8,118v100.6h88.3c32.9,0,54.8-20.6,54.8-50.3c0-29-21.9-50.3-54.8-50.3
		H560.8z M1721.8,125.7h-118c-69.6,0-107.6,36.7-107.6,108.9c0,71.5,38,107.6,107.6,107.6h118V468h-142.4
		c-130.2,0-217.9-77.3-217.9-233.3C1361.5,79.3,1449.2,0,1579.4,0h142.4V125.7z M2031.2,314.6V468h-134.7V314.6L1730.2,0h155.3
		l82.5,170.2L2051.2,0h147.6L2031.2,314.6z M2628,234.7c0,128.1-104.6,233.3-234,233.3s-234.6-105.2-234.6-233.3
		c0-130,105.2-234.6,234.6-234.6C2523.4,0.1,2628,104.7,2628,234.7z M2282.6,234.7c0,61.3,50.1,110.2,111.4,110.2
		c61.3,0,110.2-48.9,110.2-110.2c0-61.9-48.9-110.8-110.2-110.8C2332.8,123.9,2282.6,172.8,2282.6,234.7z M3096,468h-123.7
		l-180.5-255.2V468h-128.9V0H2786l180.5,250.7V0H3096V468z"/>
	
		<linearGradient id="logo_00000013899431882019547610000007463504917254090899_" gradientUnits="userSpaceOnUse" x1="864" y1="236.05" x2="1331.9" y2="236.05" gradientTransform="matrix(1 0 0 -1 0 470)">
		<stop  offset="0" style="stop-color:#54E280"/>
		<stop  offset="1" style="stop-color:#1EC498"/>
	</linearGradient>
	<path id="logo" style="fill:url(#logo_00000013899431882019547610000007463504917254090899_);" d="M873.4,299.9
		c-6.1-20.7-9.4-42.7-9.4-65.3c0-96.1,57.5-178.4,139.7-214.7c-23.6,67.3-20.7,143.6,15.2,210.9c6.5,13,2.2,30.3-9.8,40.1
		C968.4,302.2,919.8,309,873.4,299.9z M1061.2,145.2c9.8,11.9,27.1,16.2,40.1,9.8c67.3-35.9,143.6-38.8,210.9-15.2
		C1276,57.3,1193.9,0,1098.3,0c-23,0-45.2,3.3-66.2,9.5C1023,55.9,1029.9,104.4,1061.2,145.2z M1134.8,322.8
		c-9.8-11.9-27.1-16.2-40.1-9.8c-67.3,35.9-143.6,38.8-210.9,15.2c36.3,82,118.8,139.7,214.5,139.7c22.6,0,44.4-3.2,65.1-9.2
		C1172.5,412.1,1165.4,362.8,1134.8,322.8z M1186.8,197.2c-11.9,9.8-16.2,27.1-9.8,40.1c36.6,68,38.9,143.9,14.9,211.2
		c82.5-36.2,140-118.7,140-213.8c0-23.1-3.3-45.5-9.5-66.5C1276.1,159,1227.6,165.8,1186.8,197.2z"/>
</g>
</svg>
