<?xml version="1.0" encoding="utf-8"?>
<!-- Generator: Adobe Illustrator 25.4.1, SVG Export Plug-In . SVG Version: 6.00 Build 0)  -->
<svg version="1.1" id="Procyon" xmlns="http://www.w3.org/2000/svg" xmlns:xlink="http://www.w3.org/1999/xlink" x="0px" y="0px"
	 viewBox="0 0 468 468" style="enable-background:new 0 0 468 468; opacity: 0.025" xml:space="preserve">
<style type="text/css">
	.st0{fill:url(#logo_00000096740973838127111020000006769223971061067437_);}
</style>
<linearGradient id="logo_00000090273353180323669250000008698056745355859366_" gradientUnits="userSpaceOnUse" x1="0" y1="234" x2="468" y2="234">
	<stop  offset="0" style="stop-color:#54E280"/>
	<stop  offset="1" style="stop-color:#1EC498"/>
</linearGradient>
<path id="logo" style="fill:url(#logo_00000090273353180323669250000008698056745355859366_);" d="M9.4,299.9
	C3.3,279.2,0,257.2,0,234.6C0,138.5,57.5,56.2,139.7,19.9c-23.6,67.3-20.7,143.6,15.2,210.9c6.5,13,2.2,30.3-9.8,40.1
	C104.4,302.2,55.8,309,9.4,299.9z M197.2,145.2c9.8,11.9,27.1,16.2,40.1,9.8c67.3-35.9,143.6-38.8,210.9-15.2
	C412,57.3,329.9,0,234.3,0c-23,0-45.2,3.3-66.2,9.5C159,55.9,165.9,104.4,197.2,145.2z M270.8,322.8c-9.8-11.9-27.1-16.2-40.1-9.8
	C163.5,349,87.2,351.8,19.8,328.3C56.2,410.3,138.6,468,234.3,468c22.6,0,44.4-3.2,65.1-9.2C308.5,412.1,301.4,362.8,270.8,322.8z
	 M322.8,197.2c-11.9,9.8-16.2,27.1-9.8,40.1c36.6,68,38.9,143.9,14.9,211.2c82.5-36.2,140-118.7,140-213.8c0-23.1-3.3-45.5-9.5-66.5
	C412.1,159,363.6,165.8,322.8,197.2z"/>
</svg>
